<svg width="96" height="40" viewBox="0 0 96 40" fill="none" xmlns="http://www.w3.org/2000/svg">
<path fill-rule="evenodd" clip-rule="evenodd" d="M3.84811 14.2222H7.23623C9.57263 14.2222 11.4725 16.1017 11.4725 18.41C11.4725 20.7198 9.57263 22.5966 7.23623 22.5966H4.69465V25.1092C4.69465 25.572 4.31515 25.9472 3.84811 25.9472C3.38028 25.9472 3 25.572 3 25.1092L3 15.0598C3 14.5974 3.38028 14.2222 3.84811 14.2222ZM4.69466 20.9222H7.23624C8.63855 20.9222 9.77861 19.795 9.77861 18.4099C9.77861 17.0248 8.63855 15.898 7.23624 15.898H4.69466L4.69466 20.9222ZM22.4863 14.2222L18.254 14.2222H18.2501H18.2458H14.0139C13.5461 14.2222 13.1666 14.5974 13.1666 15.0598C13.1666 15.5237 13.5461 15.8981 14.0139 15.8981H17.4028V25.1092C17.4028 25.572 17.7823 25.9472 18.2501 25.9472C18.7183 25.9472 19.0974 25.572 19.0974 25.1092V15.8981H22.4863C22.9538 15.8981 23.3333 15.5237 23.3333 15.0598C23.3333 14.5974 22.9538 14.2222 22.4863 14.2222ZM41.5493 14.2222C41.0807 14.2222 40.702 14.5974 40.702 15.0598V25.1092C40.702 25.572 41.0807 25.9472 41.5493 25.9472C42.0164 25.9472 42.3951 25.572 42.3951 25.1092V15.0598C42.3951 14.5974 42.0164 14.2222 41.5493 14.2222ZM70.7778 20.0855C70.7778 16.8631 68.1342 14.2406 64.8774 14.2234L64.8717 14.2233L64.8629 14.223H61.0503C60.5833 14.223 60.2038 14.5975 60.2038 15.0598C60.2038 15.523 60.5833 15.8982 61.0503 15.8982L64.8469 15.8982C67.1829 15.8982 69.0839 17.7757 69.0839 20.0855C69.0839 22.3938 67.1829 24.2717 64.8469 24.2717L61.8969 24.2717V18.41C61.8969 17.9477 61.5178 17.5721 61.0503 17.5721C60.5833 17.5721 60.2038 17.9477 60.2038 18.41V25.1093C60.2038 25.572 60.5833 25.9468 61.0503 25.9468L64.8629 25.9468H64.8774C68.1342 25.9293 70.7778 23.3072 70.7778 20.0855ZM55.1048 15.0598C55.1048 14.5974 55.4843 14.2222 55.9522 14.2222C56.4204 14.2222 56.7995 14.5974 56.7995 15.0598V25.1092C56.7995 25.1135 56.7991 25.1173 56.7987 25.1211L56.7987 25.1215L56.7982 25.1268L56.7979 25.1335C56.7979 25.142 56.7974 25.1499 56.7969 25.1577C56.7964 25.1653 56.796 25.1729 56.796 25.1808C56.7952 25.1937 56.7932 25.207 56.7913 25.2195C56.7903 25.2254 56.7896 25.2312 56.7889 25.2369L56.7889 25.2371L56.7888 25.2372C56.7879 25.2449 56.787 25.2525 56.7854 25.2601C56.7823 25.275 56.7796 25.2882 56.7768 25.3023C56.7749 25.3086 56.7732 25.3148 56.7715 25.3211C56.7699 25.3273 56.7682 25.3336 56.7663 25.3398C56.7627 25.3539 56.7584 25.3676 56.753 25.3817C56.7491 25.3942 56.7452 25.4051 56.7401 25.4172C56.7354 25.4305 56.7284 25.443 56.7229 25.4547C56.7192 25.466 56.7131 25.4767 56.7073 25.4868L56.7041 25.4923L56.7012 25.4984C56.699 25.503 56.6969 25.5076 56.6945 25.5121C56.6919 25.517 56.6891 25.5218 56.6858 25.5263L56.6838 25.5303L56.6814 25.5348L56.679 25.539C56.6765 25.5431 56.674 25.5471 56.6713 25.5512L56.6713 25.5512C56.6686 25.5553 56.6658 25.5596 56.6631 25.5642C56.6561 25.5743 56.6486 25.5837 56.6408 25.5958C56.6372 25.6003 56.6336 25.6053 56.63 25.6105C56.6269 25.6148 56.6238 25.6193 56.6205 25.6235L56.6154 25.6298C56.608 25.6404 56.5974 25.6513 56.5884 25.6603C56.5798 25.6697 56.5709 25.681 56.5623 25.69L56.5429 25.709C56.5383 25.7135 56.5336 25.718 56.5286 25.7225C56.5267 25.7238 56.525 25.7254 56.5233 25.727L56.5182 25.7323C56.5155 25.7351 56.5129 25.738 56.5099 25.7404C56.5078 25.7416 56.5058 25.7431 56.5036 25.7446L56.5013 25.7461L56.4989 25.7475C56.4915 25.7557 56.4798 25.7643 56.47 25.7713C56.4666 25.7737 56.4634 25.7761 56.4602 25.7786L56.4523 25.7849L56.4467 25.7895C56.4436 25.7919 56.4404 25.7944 56.4372 25.7967C56.4332 25.7989 56.4294 25.8012 56.4257 25.8035C56.4198 25.8072 56.414 25.811 56.4082 25.8149L56.4055 25.8167C56.3934 25.8245 56.3817 25.8315 56.3688 25.8374C56.3602 25.8432 56.3519 25.8475 56.3438 25.8518L56.3371 25.8553C56.3235 25.8612 56.3102 25.8679 56.2973 25.8737C56.2871 25.8792 56.2758 25.8831 56.2656 25.887L56.2559 25.8905L56.244 25.8949C56.2371 25.8975 56.2302 25.9001 56.223 25.903C56.2125 25.9069 56.2015 25.9101 56.1898 25.9136C56.1745 25.9175 56.1593 25.921 56.1448 25.9241C56.1398 25.9251 56.1343 25.9266 56.1288 25.928L56.1243 25.9292C56.1204 25.9303 56.1165 25.9312 56.1128 25.9319L56.0945 25.9348L56.0779 25.9373L56.0604 25.9398L56.0517 25.9408L56.0423 25.942C56.0403 25.9422 56.0383 25.9424 56.0365 25.9424C56.0357 25.9425 56.035 25.9425 56.0342 25.9425C56.0065 25.9452 55.9811 25.9472 55.9522 25.9472C55.8935 25.9472 55.8345 25.9405 55.7779 25.9292L55.7724 25.9276C55.7706 25.927 55.7689 25.9265 55.7669 25.9261C55.7419 25.921 55.7188 25.9148 55.695 25.9073C55.6868 25.905 55.6786 25.9015 55.6704 25.8979C55.652 25.8917 55.6329 25.885 55.6153 25.878C55.6043 25.8725 55.5938 25.8679 55.5836 25.8628C55.5786 25.8602 55.5734 25.8577 55.568 25.8552C55.5579 25.8503 55.5475 25.8453 55.5383 25.8397L55.5233 25.831L55.5142 25.8255L55.5051 25.8198C55.4922 25.8116 55.4789 25.803 55.466 25.7952C55.4594 25.7908 55.4528 25.7856 55.4461 25.7804L55.4419 25.777L55.4339 25.7709L55.4125 25.7538L55.3968 25.7412L55.3895 25.7348L55.3806 25.727C55.3762 25.7232 55.3719 25.7193 55.3679 25.7154C55.3594 25.708 55.3518 25.7001 55.3441 25.6922C55.3393 25.6873 55.3345 25.6823 55.3296 25.6775C55.3253 25.6709 55.3198 25.6662 55.3151 25.6611L47.9026 17.2879V25.1092C47.9026 25.572 47.5235 25.9472 47.056 25.9472C46.587 25.9472 46.2083 25.572 46.2083 25.1092V15.0598C46.2083 15.0437 46.2103 15.0265 46.2122 15.0094V15.0015C46.2138 14.9769 46.2165 14.9519 46.2197 14.9281C46.2197 14.9253 46.2197 14.9242 46.2212 14.9226L46.2219 14.9185V14.9185C46.2259 14.8945 46.2299 14.8713 46.2376 14.8495C46.2376 14.8478 46.2379 14.8467 46.2383 14.8455L46.2388 14.8432C46.2447 14.8202 46.2521 14.7967 46.2599 14.7729C46.2618 14.7716 46.2624 14.7699 46.2629 14.7684L46.2638 14.7663C46.2716 14.7436 46.281 14.7205 46.2916 14.6994C46.2924 14.6974 46.2936 14.6956 46.2947 14.6938L46.297 14.6897C46.3072 14.6689 46.3181 14.6486 46.3303 14.6295L46.3316 14.6272C46.3338 14.6236 46.3364 14.6194 46.3377 14.6162C46.3498 14.5974 46.3623 14.579 46.3764 14.5619C46.3786 14.559 46.3811 14.5556 46.3835 14.5522L46.3861 14.5486C46.4002 14.5302 46.4147 14.513 46.4307 14.4974C46.4334 14.4931 46.4362 14.4892 46.4397 14.486C46.4569 14.4681 46.4749 14.4516 46.494 14.4356C46.4947 14.4344 46.4957 14.4333 46.4966 14.4323L46.4979 14.4305C46.4987 14.4298 46.4991 14.4294 46.4995 14.4291L46.5004 14.4288L46.5018 14.4286C46.5202 14.4106 46.5401 14.3961 46.5601 14.3817C46.5624 14.3805 46.5641 14.3792 46.5658 14.3781L46.5691 14.3758C46.5842 14.364 46.6009 14.3542 46.6179 14.3442L46.6179 14.3442L46.6312 14.3363C46.6339 14.334 46.6375 14.332 46.6414 14.3305C46.6613 14.3195 46.6816 14.309 46.7019 14.2996L46.7065 14.2975C46.7094 14.296 46.7124 14.2945 46.716 14.2937C46.7344 14.2851 46.7559 14.2773 46.7758 14.2711L46.7811 14.2689C46.7855 14.2671 46.7902 14.2652 46.7938 14.2633C46.8043 14.261 46.8148 14.258 46.825 14.2551L46.8251 14.2551L46.8251 14.255C46.8323 14.253 46.8395 14.251 46.8465 14.2492C46.8575 14.2473 46.8655 14.2451 46.8748 14.2424L46.8748 14.2424L46.8759 14.2421C46.8911 14.2386 46.906 14.2367 46.9208 14.2347C46.9341 14.232 46.9458 14.2296 46.9591 14.2296C46.9673 14.2279 46.9754 14.2273 46.9835 14.2266C46.9881 14.2263 46.9927 14.2259 46.9974 14.2253L47.0213 14.2238L47.0451 14.2222H47.056C47.0601 14.2222 47.0639 14.2225 47.0678 14.2228C47.0716 14.2231 47.0754 14.2234 47.0795 14.2234C47.0975 14.2242 47.1123 14.2253 47.1299 14.2269C47.1361 14.2269 47.1429 14.2278 47.1498 14.2287L47.1498 14.2287C47.155 14.2294 47.1603 14.2301 47.1655 14.2304C47.1799 14.2319 47.1943 14.2344 47.209 14.237L47.2116 14.2375C47.22 14.2389 47.2281 14.2407 47.2369 14.2426L47.2369 14.2426L47.2369 14.2426L47.2369 14.2426L47.2369 14.2426L47.2475 14.2449C47.2628 14.248 47.2776 14.2519 47.2929 14.2574C47.2998 14.2588 47.3078 14.2612 47.3158 14.2636L47.3158 14.2636L47.3253 14.2664C47.3413 14.2719 47.357 14.2773 47.3734 14.2844C47.378 14.286 47.3824 14.288 47.3869 14.29L47.3869 14.29L47.387 14.29L47.387 14.2901C47.3908 14.2918 47.3946 14.2935 47.3984 14.2949C47.4164 14.3023 47.4328 14.3102 47.4508 14.3195C47.4558 14.3219 47.4604 14.3247 47.4648 14.3275L47.465 14.3275V14.3275L47.4691 14.3301C47.4843 14.3374 47.4985 14.3462 47.5124 14.3549L47.5125 14.3549L47.5223 14.361L47.5284 14.3653C47.5316 14.3677 47.535 14.3701 47.5383 14.3723C47.5487 14.3803 47.5605 14.3887 47.5722 14.3971L47.5724 14.3972L47.5899 14.4098C47.5934 14.4133 47.5981 14.4176 47.602 14.4204L47.6128 14.4296C47.6263 14.4412 47.639 14.4521 47.6505 14.4641L47.6638 14.4774C47.6739 14.4872 47.6837 14.4974 47.6939 14.5083L55.1048 22.8807V15.0598ZM26.512 14.5084L26.5187 14.515L29.3776 17.7815C29.6825 18.1325 29.6407 18.6613 29.2866 18.9634C29.1252 19.0982 28.9297 19.1643 28.7355 19.1643C28.4955 19.1643 28.2595 19.0658 28.0914 18.872L26.7227 17.3243V25.1092C26.7227 25.5724 26.3428 25.9472 25.8754 25.9472C25.4072 25.9472 25.0281 25.5724 25.0281 25.1092V15.0602C25.0281 15.0518 25.0287 15.0432 25.0295 15.0339L25.0296 15.0316C25.0296 15.0243 25.0299 15.017 25.0302 15.0094C25.0305 15.0016 25.0308 14.9937 25.0308 14.9855C25.0318 14.98 25.0327 14.9739 25.0335 14.9677C25.0345 14.96 25.0355 14.9522 25.0371 14.9453C25.0398 14.9312 25.0414 14.9187 25.0425 14.905L25.0468 14.8885C25.0492 14.8795 25.0515 14.8704 25.0535 14.862C25.0558 14.8499 25.0585 14.8382 25.0621 14.8261C25.0651 14.8154 25.0691 14.8042 25.073 14.7935L25.0761 14.7846C25.0781 14.7783 25.0804 14.7719 25.0826 14.7658C25.0848 14.7597 25.0869 14.7539 25.0886 14.7483C25.0949 14.7346 25.1004 14.7233 25.1074 14.71C25.1117 14.6983 25.1176 14.685 25.1246 14.6736L25.1293 14.6651C25.134 14.6565 25.1387 14.6479 25.1434 14.64C25.1464 14.6346 25.1495 14.6296 25.1526 14.6246C25.1571 14.6173 25.1615 14.6102 25.1652 14.6025C25.1683 14.5979 25.1716 14.5937 25.1749 14.5895C25.1795 14.5837 25.184 14.5778 25.1879 14.5712L25.1991 14.5565C25.204 14.55 25.209 14.5432 25.2141 14.5368L25.223 14.5267C25.2292 14.5197 25.2353 14.5128 25.2403 14.506C25.246 14.5002 25.2512 14.4944 25.2564 14.4886L25.2564 14.4886C25.2604 14.4842 25.2643 14.4797 25.2684 14.4755L25.2742 14.4701C25.2836 14.4613 25.293 14.4524 25.3044 14.443L25.3115 14.436L25.3116 14.436C25.3156 14.4319 25.3196 14.4278 25.3235 14.4247C25.3243 14.4235 25.3253 14.4228 25.3264 14.4221C25.3276 14.4214 25.3288 14.4206 25.3298 14.4192C25.3431 14.409 25.3568 14.3989 25.3728 14.3883L25.3783 14.3838C25.3844 14.3788 25.3905 14.3737 25.3974 14.3696C25.4077 14.3622 25.4185 14.3559 25.4294 14.3496L25.44 14.3434C25.4441 14.3411 25.4481 14.3384 25.452 14.3358L25.4521 14.3358L25.4521 14.3358L25.4521 14.3358C25.4574 14.3322 25.4627 14.3287 25.4681 14.3262C25.4769 14.3208 25.4861 14.3168 25.4953 14.3127C25.5001 14.3106 25.5049 14.3085 25.5096 14.3062L25.5099 14.3061C25.5211 14.3003 25.5316 14.2949 25.5432 14.2902C25.5539 14.2849 25.5646 14.2813 25.5756 14.2776L25.5834 14.275L25.5939 14.2707L25.5939 14.2707C25.6022 14.2672 25.611 14.2635 25.6206 14.2613C25.6286 14.2587 25.6385 14.2564 25.6475 14.2542L25.6475 14.2542L25.6569 14.2519L25.657 14.2519L25.657 14.2519C25.6714 14.248 25.6859 14.2441 25.7007 14.2406C25.7071 14.2393 25.7137 14.2385 25.7201 14.2377L25.7201 14.2377C25.7254 14.237 25.7306 14.2364 25.7355 14.2355C25.7507 14.232 25.7679 14.2296 25.7839 14.2277C25.7906 14.2267 25.7981 14.2263 25.8053 14.226L25.8164 14.2253C25.8237 14.2252 25.8312 14.2245 25.8388 14.2239C25.8483 14.2231 25.8582 14.2222 25.8684 14.2222H25.8754C25.8806 14.2222 25.8853 14.2225 25.89 14.2228L25.89 14.2228C25.8945 14.2231 25.8989 14.2234 25.9035 14.2234C25.915 14.2246 25.9271 14.2251 25.9391 14.2256L25.9512 14.2261C25.9649 14.2277 25.9786 14.2296 25.9919 14.232C26.0048 14.2336 26.0184 14.2355 26.0325 14.2382C26.0434 14.24 26.0542 14.2424 26.065 14.2448L26.0759 14.2472C26.0814 14.2489 26.0868 14.2502 26.0922 14.2515L26.0923 14.2515C26.0985 14.253 26.1048 14.2545 26.1115 14.2566C26.1267 14.2601 26.1408 14.2644 26.1552 14.2707C26.1673 14.2746 26.1783 14.2785 26.1908 14.2836C26.2015 14.2872 26.2146 14.2937 26.2251 14.299L26.2252 14.299L26.2279 14.3004C26.242 14.3062 26.2529 14.3113 26.2666 14.318L26.2814 14.3261C26.2877 14.3295 26.2938 14.3328 26.2998 14.3363C26.3086 14.341 26.3164 14.3459 26.3243 14.3508L26.3243 14.3508L26.3243 14.3508C26.3291 14.3538 26.3339 14.3568 26.3389 14.3598C26.3495 14.3664 26.3604 14.3743 26.3694 14.3821C26.3811 14.3895 26.3932 14.3981 26.405 14.4067C26.4155 14.4169 26.4249 14.4247 26.4362 14.4333L26.4525 14.4475L26.4671 14.4602C26.4718 14.4652 26.4763 14.4703 26.4808 14.4754L26.4808 14.4754C26.4869 14.4822 26.493 14.4891 26.4995 14.4958C26.5034 14.5002 26.5077 14.5043 26.512 14.5084ZM36.8865 14.9855L36.8838 14.9693L36.8837 14.9692C36.8824 14.961 36.8811 14.9526 36.8795 14.9453C36.8783 14.9312 36.8767 14.9187 36.874 14.9046C36.8725 14.8988 36.8712 14.8928 36.8698 14.8867L36.8698 14.8865C36.8679 14.8782 36.8661 14.8699 36.8638 14.862C36.8615 14.8499 36.8587 14.8382 36.8545 14.8261C36.8513 14.8124 36.8455 14.7979 36.84 14.7846C36.8379 14.7751 36.8345 14.7656 36.8312 14.7567L36.8283 14.7483C36.8242 14.7386 36.8206 14.7308 36.8166 14.7224L36.8111 14.7104L36.8092 14.7062V14.7062C36.8042 14.6952 36.7989 14.6833 36.7927 14.6736C36.7872 14.6623 36.7806 14.6514 36.7739 14.6404C36.7685 14.6293 36.7624 14.6197 36.7558 14.6096L36.7558 14.6096L36.7513 14.6025L36.7487 14.5989L36.7487 14.5988C36.742 14.5895 36.7361 14.5813 36.7306 14.5716C36.7262 14.5666 36.722 14.5612 36.7176 14.5557L36.7175 14.5555C36.7125 14.5491 36.7073 14.5425 36.7016 14.5361L36.696 14.5293C36.6896 14.5217 36.6832 14.5139 36.6762 14.5064C36.6721 14.5023 36.6682 14.4977 36.6642 14.4931C36.659 14.4871 36.6537 14.481 36.6477 14.4755C36.6403 14.4672 36.6314 14.4594 36.6225 14.4517L36.6141 14.4442C36.6074 14.4376 36.6004 14.4309 36.593 14.4243L36.5902 14.4217L36.5875 14.4192L36.5788 14.4127C36.5681 14.4047 36.5576 14.3969 36.5469 14.3895C36.5416 14.3852 36.5361 14.381 36.5309 14.377L36.5203 14.3688C36.5101 14.3619 36.5 14.356 36.4893 14.3497L36.4792 14.3438C36.4687 14.3379 36.4585 14.332 36.4495 14.3262C36.4426 14.3223 36.4351 14.3187 36.4277 14.3152L36.4277 14.3152C36.4218 14.3124 36.416 14.3096 36.4105 14.3066C36.4042 14.3041 36.3984 14.3013 36.3925 14.2984V14.2984C36.3866 14.2956 36.3808 14.2928 36.3745 14.2902C36.3628 14.2851 36.3499 14.2805 36.3374 14.2765C36.326 14.2716 36.3136 14.2672 36.3006 14.2627L36.3006 14.2626L36.2967 14.2613C36.2903 14.2592 36.2833 14.2576 36.276 14.2558L36.276 14.2558L36.276 14.2558C36.2709 14.2546 36.2657 14.2534 36.2604 14.2519C36.2467 14.248 36.2319 14.2441 36.2162 14.2406L36.2119 14.2398C36.2021 14.2381 36.1929 14.2365 36.183 14.2355L36.1667 14.2327L36.1667 14.2327C36.1553 14.2307 36.1441 14.2288 36.133 14.2277L36.1013 14.2253C36.0936 14.2252 36.0857 14.2245 36.0777 14.2238L36.0777 14.2238C36.0682 14.223 36.0587 14.2222 36.0493 14.2222H36.0419C36.0372 14.2222 36.0324 14.2225 36.0277 14.2228C36.0231 14.2231 36.0186 14.2234 36.0142 14.2234C36.0027 14.2246 35.9906 14.2251 35.9785 14.2256L35.9665 14.2261C35.9516 14.2277 35.9387 14.2293 35.9247 14.232C35.9161 14.233 35.9082 14.2341 35.9 14.2353L35.8848 14.2375C35.8707 14.2403 35.8586 14.2434 35.8452 14.2468L35.8452 14.2468L35.8406 14.248L35.8275 14.251C35.8204 14.2526 35.8129 14.2542 35.8043 14.2566C35.7906 14.2601 35.7765 14.2644 35.7629 14.2703L35.7508 14.2746C35.7429 14.2774 35.7348 14.2802 35.7265 14.2836C35.714 14.2875 35.6999 14.2941 35.6882 14.3004C35.6822 14.3031 35.6762 14.3057 35.6702 14.3082C35.6635 14.3111 35.6569 14.3139 35.6507 14.3168C35.6416 14.3231 35.6325 14.3278 35.6232 14.3327L35.6163 14.3363L35.6129 14.3384C35.6018 14.3452 35.5902 14.3523 35.5792 14.3598C35.5721 14.364 35.5658 14.3685 35.5597 14.3727L35.5597 14.3728C35.5557 14.3756 35.5519 14.3783 35.5479 14.3809C35.537 14.3895 35.5237 14.3981 35.5115 14.4059C35.5018 14.4153 35.492 14.4243 35.4811 14.4329C35.4748 14.4392 35.4686 14.4446 35.4624 14.45L35.4624 14.45L35.451 14.4602C35.4392 14.472 35.4287 14.4825 35.4185 14.4954L35.4116 14.502C35.4073 14.5062 35.4026 14.5107 35.3978 14.515L30.315 20.3774C30.0106 20.7284 30.052 21.2564 30.4073 21.5589C30.566 21.6934 30.7629 21.7598 30.9583 21.7598C31.1964 21.7598 31.4344 21.6602 31.6017 21.4671L35.1946 17.3243V25.1092C35.1946 25.5716 35.5741 25.9472 36.0419 25.9472C36.5109 25.9472 36.8892 25.5716 36.8892 25.1092V15.0602C36.8892 15.0556 36.8889 15.0511 36.8885 15.0465C36.8881 15.0417 36.8877 15.0368 36.8877 15.0316C36.8877 15.0243 36.8874 15.017 36.8871 15.0094C36.8868 15.0016 36.8865 14.9937 36.8865 14.9855Z" fill="black"/>
<path fill-rule="evenodd" clip-rule="evenodd" d="M78.3333 11C76.4924 11 75 12.4924 75 14.3333V25.6667C75 27.5076 76.4924 29 78.3333 29H89.6667C91.5076 29 93 27.5076 93 25.6667V14.3333C93 12.4924 91.5076 11 89.6667 11H78.3333ZM89.7407 18.7037C89.7407 18.2264 89.3538 17.8395 88.8765 17.8395C88.3993 17.8395 88.0123 18.2264 88.0123 18.7037V23.642C88.0123 24.1193 88.3993 24.5062 88.8765 24.5062C89.3538 24.5062 89.7407 24.1193 89.7407 23.642V18.7037ZM88.6588 15.1482C88.7367 14.9506 89.0164 14.9506 89.0943 15.1482L89.3027 15.6766C89.3265 15.7369 89.3742 15.7846 89.4346 15.8084L89.9629 16.0168C90.1605 16.0948 90.1605 16.3744 89.9629 16.4523L89.4346 16.6607C89.3742 16.6845 89.3265 16.7322 89.3027 16.7926L89.0943 17.3209C89.0164 17.5185 88.7367 17.5185 88.6588 17.321L88.4504 16.7926C88.4266 16.7322 88.3789 16.6845 88.3185 16.6607L87.7902 16.4523C87.5926 16.3744 87.5926 16.0948 87.7902 16.0168L88.3185 15.8084C88.3789 15.7846 88.4266 15.7369 88.4504 15.6766L88.6588 15.1482ZM81.2222 15.3704C80.8406 15.3704 80.5041 15.6207 80.3945 15.9862L78.1723 23.3937C78.0351 23.8508 78.2945 24.3326 78.7517 24.4697C79.2088 24.6069 79.6906 24.3475 79.8278 23.8903L81.8652 17.0988H82.8015L84.8389 23.8903C84.9761 24.3475 85.4578 24.6069 85.915 24.4697C86.3721 24.3326 86.6316 23.8508 86.4944 23.3937L84.2722 15.9862C84.1625 15.6207 83.8261 15.3704 83.4444 15.3704H81.2222Z" fill="black"/>
</svg>
